<?xml version="1.0" encoding="UTF-8" standalone="no"?>
<!DOCTYPE svg PUBLIC "-//W3C//DTD SVG 1.1//EN"
 "http://www.w3.org/Graphics/SVG/1.1/DTD/svg11.dtd">
<!-- Generated by graphviz version 11.0.0 (0)
 -->
<!-- Pages: 1 -->
<svg width="116pt" height="133pt"
 viewBox="0.00 0.00 116.00 132.50" xmlns="http://www.w3.org/2000/svg" xmlns:xlink="http://www.w3.org/1999/xlink">
<g id="graph0" class="graph" transform="scale(1 1) rotate(0) translate(4 128.5)">
<polygon fill="white" stroke="none" points="-4,4 -4,-128.5 112,-128.5 112,4 -4,4"/>
<!-- q0 -->
<g id="node1" class="node">
<title>q0</title>
<ellipse fill="none" stroke="black" cx="27" cy="-106.5" rx="27" ry="18"/>
<text text-anchor="middle" x="27" y="-101.45" font-family="Times,serif" font-size="14.00">q0</text>
</g>
<!-- q0&#45;&gt;q0 -->
<g id="edge1" class="edge">
<title>q0&#45;&gt;q0</title>
<path fill="none" stroke="black" d="M51.53,-114.67C62.51,-115.45 72,-112.72 72,-106.5 72,-102.61 68.29,-100.09 62.83,-98.93"/>
<polygon fill="black" stroke="black" points="63.22,-95.45 53.04,-98.41 62.84,-102.44 63.22,-95.45"/>
<text text-anchor="middle" x="90" y="-101.45" font-family="Times,serif" font-size="14.00">a+b+d</text>
</g>
<!-- q1 -->
<g id="node2" class="node">
<title>q1</title>
<ellipse fill="none" stroke="black" cx="27" cy="-18" rx="27" ry="18"/>
<text text-anchor="middle" x="27" y="-12.95" font-family="Times,serif" font-size="14.00">q1</text>
</g>
<!-- q0&#45;&gt;q1 -->
<g id="edge2" class="edge">
<title>q0&#45;&gt;q1</title>
<path fill="none" stroke="black" d="M21.15,-88.61C19.46,-82.93 17.84,-76.51 17,-70.5 15.98,-63.24 15.98,-61.26 17,-54 17.33,-51.65 17.78,-49.24 18.3,-46.84"/>
<polygon fill="black" stroke="black" points="21.64,-47.91 20.77,-37.35 14.86,-46.15 21.64,-47.91"/>
<text text-anchor="middle" x="20" y="-57.2" font-family="Times,serif" font-size="14.00">c</text>
</g>
<!-- q1&#45;&gt;q0 -->
<g id="edge3" class="edge">
<title>q1&#45;&gt;q0</title>
<path fill="none" stroke="black" d="M27,-36.35C27,-48.06 27,-63.79 27,-77.28"/>
<polygon fill="black" stroke="black" points="23.5,-76.9 27,-86.9 30.5,-76.9 23.5,-76.9"/>
<text text-anchor="middle" x="52.12" y="-57.2" font-family="Times,serif" font-size="14.00">a+b+c+d</text>
</g>
</g>
</svg>
